<svg width="113" height="113" viewBox="0 0 113 113" fill="none" xmlns="http://www.w3.org/2000/svg">
<path fill-rule="evenodd" clip-rule="evenodd" d="M56.4332 4.39453C56.5278 4.39453 56.6225 4.39479 56.7171 4.3953C66.9076 4.45071 76.8597 7.48822 85.3364 13.1338C93.8917 18.8317 100.56 26.9304 104.497 36.4058C107.182 42.8658 108.515 49.7679 108.456 56.6942C108.217 85.0433 85.1559 107.967 56.6906 108.105C56.5304 108.106 56.3701 108.106 56.2099 108.105C27.5804 107.985 4.40886 84.8148 4.40887 56.25C4.40886 42.1333 10.0681 29.3341 19.2487 19.9835C19.3805 19.8492 19.5131 19.7156 19.6464 19.5826C19.7236 19.5057 19.8011 19.429 19.8787 19.3526C29.2743 10.1039 42.1848 4.39454 56.4332 4.39453ZM56.4332 0C45.2718 0 34.361 3.29901 25.0806 9.47984C15.8002 15.6607 8.56704 24.4457 4.29574 34.7241C0.0244515 45.0024 -1.09311 56.3124 1.08437 67.2238C3.26186 78.1353 8.6366 88.1581 16.5289 96.0248C24.4212 103.891 34.4767 109.249 45.4236 111.419C56.3706 113.59 67.7174 112.476 78.0292 108.218C88.341 103.961 97.1547 96.7511 103.356 87.5008C109.557 78.2506 112.866 67.3752 112.866 56.25C112.85 41.3366 106.899 27.0386 96.3194 16.4932C85.7397 5.94784 71.3952 0.0162849 56.4332 0ZM67.8064 85.8169C67.8064 81.2699 64.1069 77.5698 59.5603 77.5698H53.3045C48.7578 77.5698 45.0574 81.2701 45.0574 85.8169L45.0584 91.0913H67.8064V85.8169ZM46.8015 85.8169C46.8015 82.2316 49.719 79.3139 53.3045 79.3139H59.5603C63.1464 79.3139 66.0633 82.2315 66.0633 85.8169V89.3481H46.8015V85.8169ZM31.991 64.938C31.8559 64.6182 31.5487 64.4067 31.2019 64.4067H31.1707C30.5606 64.4067 30.1289 65.027 30.365 65.5893C32.0011 69.4833 34.4877 72.9334 37.5877 75.7134C38.095 76.1682 38.8979 75.8955 39.0242 75.228L39.0271 75.2085C39.083 74.9141 38.9795 74.6197 38.7566 74.4194C35.853 71.8156 33.5261 68.584 31.991 64.938ZM82.4998 65.5893C82.7366 65.0261 82.3051 64.4067 81.6951 64.4067H81.6638C81.3168 64.4067 81.009 64.6179 80.8748 64.938C79.3397 68.5842 77.0136 71.8159 74.1092 74.4194C73.8861 74.62 73.7809 74.914 73.8377 75.2085C73.8381 75.2115 73.8389 75.2149 73.8396 75.2182C73.8404 75.2215 73.8412 75.2249 73.8416 75.228C73.9693 75.8961 74.7718 76.1684 75.2781 75.7143C78.3779 72.9343 80.8642 69.4833 82.4998 65.5893ZM63.6756 65.6128C63.6754 62.0024 60.739 59.066 57.1287 59.0659H55.7371C52.1276 59.066 49.1913 62.0024 49.1912 65.6128V68.4311C49.1912 72.0408 52.1276 74.9779 55.7371 74.978H57.1287C60.7391 74.9779 63.6756 72.0408 63.6756 68.4311V65.6128ZM50.9343 65.6138C50.9343 62.9647 53.089 60.8093 55.7371 60.8091H57.1287C59.7778 60.8091 61.9324 62.9645 61.9324 65.6138V68.4321C61.9321 71.0811 59.7777 73.2348 57.1287 73.2348H55.7371C53.0883 73.2343 50.9346 71.0807 50.9343 68.4321V65.6138ZM90.283 44.436C89.1681 43.8719 87.9116 43.5464 86.5789 43.5464H80.323C75.7762 43.5464 72.0771 47.2458 72.0769 51.7925V57.0679H94.825V51.7925C94.8249 49.2664 93.6813 47.0058 91.8865 45.4917C91.3977 45.0795 90.8589 44.7271 90.283 44.436ZM40.7908 50.4751C40.7906 45.9284 37.091 42.2292 32.5447 42.229H26.2879C24.7772 42.229 23.365 42.6437 22.1463 43.3559C21.2074 43.9041 20.3896 44.6315 19.7342 45.4917C18.6778 46.8775 18.0418 48.6018 18.0418 50.4751V55.7505H40.7908V50.4751ZM73.8201 51.7925C73.8202 48.2074 76.7379 45.2897 80.323 45.2895H86.5799C90.1648 45.2897 93.0827 48.2065 93.0828 51.7925L93.0818 55.3237H73.8201V51.7925ZM19.7859 50.4741C19.7861 46.889 22.7037 43.9712 26.2888 43.9712H32.5447C36.1297 43.9712 39.0474 46.889 39.0476 50.4741V54.0063H19.7859V50.4741ZM90.6912 31.5884C90.6911 27.9788 87.7548 25.0416 84.1453 25.0415H82.7537C82.3589 25.0415 81.974 25.0827 81.5984 25.1499C80.0179 25.4331 78.6329 26.2815 77.6619 27.4829C76.7536 28.6066 76.2068 30.0342 76.2068 31.5884V34.4067C76.2068 38.0173 79.1441 40.9546 82.7537 40.9546H84.1453C87.7548 40.9545 90.6912 38.0172 90.6912 34.4067V31.5884ZM36.3074 28.1704C35.4295 25.5886 32.9866 23.7243 30.1121 23.7241H28.7205C28.708 23.7241 28.6955 23.7248 28.683 23.7256C28.6703 23.7263 28.6575 23.727 28.6443 23.727C25.0699 23.7681 22.1729 26.6859 22.1726 30.27V33.0884C22.1726 36.6989 25.11 39.6362 28.7205 39.6362H30.1121C33.7224 39.636 36.659 36.6988 36.659 33.0884V30.272C36.659 29.5362 36.5321 28.8304 36.3074 28.1704ZM77.951 31.5884C77.951 28.9393 80.1055 26.7857 82.7537 26.7856H84.1453C86.7943 26.7858 88.9479 28.9402 88.948 31.5884V34.4067C88.948 37.0559 86.7935 39.2113 84.1453 39.2114H82.7537C80.1046 39.2113 77.951 37.055 77.951 34.4067V31.5884ZM23.9168 30.272C23.9168 27.6227 26.0713 25.4682 28.7205 25.4682H30.1121C32.7611 25.4685 34.9158 27.6237 34.9158 30.272V33.0903C34.9156 35.7392 32.7609 37.8938 30.1121 37.894H28.7205C26.0714 37.894 23.917 35.7394 23.9168 33.0903V30.272ZM70.866 30.4009C66.6391 27.8789 61.7033 26.4254 56.4334 26.4253C51.1632 26.4253 46.227 27.8802 42.0008 30.4028C41.4526 30.7297 41.4278 31.5134 41.9558 31.8716C41.9594 31.8734 41.9627 31.8759 41.9661 31.8784C41.9679 31.8798 41.9696 31.8811 41.9715 31.8823C42.2487 32.0707 42.6026 32.0735 42.8894 31.9018C46.8558 29.5341 51.4877 28.1684 56.4324 28.1684C61.3785 28.1685 66.0087 29.5344 69.9763 31.9018C70.2641 32.0735 70.6179 32.0697 70.8943 31.8813C70.8963 31.88 70.8983 31.8786 70.9004 31.8771C70.9038 31.8748 70.9073 31.8722 70.9109 31.8696C71.439 31.5111 71.4144 30.7286 70.866 30.4009Z" fill="#757575"/>
</svg>
